<?xml version="1.0" encoding="utf-8"?>
<!-- Generator: Adobe Illustrator 18.0.0, SVG Export Plug-In . SVG Version: 6.00 Build 0)  -->
<!DOCTYPE svg PUBLIC "-//W3C//DTD SVG 1.1//EN" "http://www.w3.org/Graphics/SVG/1.1/DTD/svg11.dtd">
<svg version="1.1" id="Layer_1" xmlns="http://www.w3.org/2000/svg" xmlns:xlink="http://www.w3.org/1999/xlink" x="0px" y="0px"
	 viewBox="0 0 200 50" enable-background="new 0 0 200 50" xml:space="preserve">
<g>
	<g>
		<path fill="#FFFFFF" d="M51,38.6C51,38.6,51,38.6,51,38.6C51,38.6,51,38.6,51,38.6c0.5-0.2,0.8-0.4,1.1-0.8
			c0.3-0.3,0.4-0.8,0.4-1.3c0-0.4-0.1-0.8-0.3-1.1c-0.2-0.3-0.4-0.6-0.8-0.8c-0.3-0.2-0.7-0.3-1.2-0.3h-2.9c-0.1,0-0.2,0.1-0.2,0.2
			v7.1c0,0.1,0.1,0.2,0.2,0.2h0.9c0.1,0,0.2-0.1,0.2-0.2v-3c0,0,0-0.1,0.1-0.1h1.3c0,0,0.1,0,0.1,0l1.4,3c0,0.1,0.1,0.1,0.2,0.1h0.9
			c0.1,0,0.2,0,0.2-0.1l0-0.1L51,38.6z M50.1,37.7h-1.6c0,0-0.1,0-0.1-0.1v-2.1c0,0,0-0.1,0.1-0.1h1.6c0.3,0,0.6,0.1,0.8,0.3
			c0.2,0.2,0.3,0.5,0.3,0.8c0,0.3-0.1,0.6-0.3,0.8C50.7,37.6,50.4,37.7,50.1,37.7z M60.8,34.4h-4.8c-0.1,0-0.2,0.1-0.2,0.2v7.1
			c0,0.1,0.1,0.2,0.2,0.2h4.8c0.1,0,0.2-0.1,0.2-0.2V41c0-0.1-0.1-0.2-0.2-0.2h-3.6c0,0-0.1,0-0.1-0.1v-2c0,0,0-0.1,0.1-0.1h2.4
			c0.1,0,0.2-0.1,0.2-0.2v-0.7c0-0.1-0.1-0.2-0.2-0.2h-2.4c0,0-0.1,0-0.1-0.1v-2c0,0,0-0.1,0.1-0.1h3.6c0.1,0,0.2-0.1,0.2-0.2v-0.7
			C61,34.5,61,34.4,60.8,34.4z M68,34.6c0-0.1-0.1-0.1-0.2-0.1h-1.3c-0.1,0-0.2,0-0.2,0.1L64,41.7c0,0.1,0,0.1,0,0.1
			c0,0,0.1,0.1,0.1,0.1h1c0.1,0,0.2,0,0.2-0.1l0.3-1.1c0,0,0-0.1,0.1-0.1h2.8c0,0,0.1,0,0.1,0.1l0.3,1.1c0,0.1,0.1,0.1,0.2,0.1h1
			c0.1,0,0.2,0,0.2-0.1c0,0,0,0,0-0.1L68,34.6z M68.2,39.6H66c0,0-0.1,0-0.1-0.1l1.1-3.6c0,0,0,0,0,0c0,0,0,0,0,0L68.2,39.6
			C68.3,39.6,68.3,39.6,68.2,39.6z M78.4,40.8h-3.5c0,0-0.1,0-0.1-0.1v-6.2c0-0.1-0.1-0.2-0.2-0.2h-0.9c-0.1,0-0.2,0.1-0.2,0.2v7.1
			c0,0.1,0.1,0.2,0.2,0.2h4.7c0.1,0,0.2-0.1,0.2-0.2V41C78.6,40.9,78.5,40.8,78.4,40.8z M91.1,34.4h-4.8c-0.1,0-0.2,0.1-0.2,0.2v7.1
			c0,0.1,0.1,0.2,0.2,0.2h4.8c0.1,0,0.2-0.1,0.2-0.2V41c0-0.1-0.1-0.2-0.2-0.2h-3.6c0,0-0.1,0-0.1-0.1v-2c0,0,0-0.1,0.1-0.1h2.4
			c0.1,0,0.2-0.1,0.2-0.2v-0.7c0-0.1-0.1-0.2-0.2-0.2h-2.4c0,0-0.1,0-0.1-0.1v-2c0,0,0-0.1,0.1-0.1h3.6c0.1,0,0.2-0.1,0.2-0.2v-0.7
			C91.2,34.5,91.2,34.4,91.1,34.4z M98.6,38.2c-0.3-0.2-0.7-0.3-1.2-0.5c-0.5-0.2-0.8-0.3-1.1-0.4c-0.2-0.1-0.4-0.2-0.5-0.4
			c-0.1-0.1-0.2-0.3-0.2-0.5c0-0.3,0.1-0.5,0.3-0.7c0.2-0.2,0.5-0.2,0.9-0.2c0.5,0,0.9,0.1,1.1,0.3c0.3,0.2,0.4,0.5,0.4,0.8v0.1
			c0,0,0,0.1,0,0.1c0,0,0.1,0,0.1,0h0.9c0.1,0,0.2-0.1,0.2-0.2v-0.1c0-0.4-0.1-0.8-0.3-1.1c-0.2-0.3-0.6-0.6-1-0.8
			c-0.4-0.2-0.9-0.3-1.4-0.3c-0.8,0-1.4,0.2-1.8,0.5c-0.5,0.4-0.7,0.9-0.7,1.5c0,0.4,0.1,0.8,0.3,1c0.2,0.3,0.5,0.5,0.8,0.7
			c0.3,0.2,0.7,0.3,1.2,0.5c0.5,0.2,0.8,0.3,1,0.4c0.2,0.1,0.4,0.2,0.5,0.4c0.1,0.1,0.2,0.3,0.2,0.5c0,0.3-0.1,0.5-0.3,0.7
			c-0.2,0.2-0.6,0.3-1,0.3c-0.5,0-0.9-0.1-1.2-0.3c-0.3-0.2-0.4-0.5-0.4-0.8v-0.2c0-0.1-0.1-0.2-0.2-0.2h-0.9
			c-0.1,0-0.2,0.1-0.2,0.2v0.2c0,0.4,0.1,0.8,0.3,1.1c0.2,0.3,0.5,0.6,1,0.8c0.4,0.2,0.9,0.3,1.4,0.3c0.5,0,1-0.1,1.4-0.3
			c0.4-0.2,0.7-0.4,0.9-0.7c0.2-0.3,0.3-0.7,0.3-1.1c0-0.4-0.1-0.8-0.3-1C99.2,38.6,98.9,38.3,98.6,38.2z M107.9,34.4h-5.2
			c-0.1,0-0.2,0.1-0.2,0.2v0.7c0,0.1,0.1,0.2,0.2,0.2h1.8c0,0,0.1,0,0.1,0.1v6.1c0,0.1,0.1,0.2,0.2,0.2h0.9c0.1,0,0.2-0.1,0.2-0.2
			v-6.1c0,0,0-0.1,0.1-0.1h1.9c0.1,0,0.2-0.1,0.2-0.2v-0.7C108.1,34.5,108,34.4,107.9,34.4z M114.3,34.6c0-0.1-0.1-0.1-0.2-0.1h-1.3
			c-0.1,0-0.2,0-0.2,0.1l-2.3,7.1c0,0.1,0,0.1,0,0.1c0,0,0.1,0.1,0.1,0.1h1c0.1,0,0.2,0,0.2-0.1l0.3-1.1c0,0,0-0.1,0.1-0.1h2.8
			c0,0,0.1,0,0.1,0.1l0.3,1.1c0,0.1,0.1,0.1,0.2,0.1h1c0.1,0,0.2,0,0.2-0.1c0,0,0,0,0-0.1L114.3,34.6z M114.5,39.6h-2.2
			c0,0-0.1,0-0.1-0.1l1.1-3.6c0,0,0,0,0,0c0,0,0,0,0,0L114.5,39.6C114.6,39.6,114.6,39.6,114.5,39.6z M123.9,34.4h-5.2
			c-0.1,0-0.2,0.1-0.2,0.2v0.7c0,0.1,0.1,0.2,0.2,0.2h1.8c0,0,0.1,0,0.1,0.1v6.1c0,0.1,0.1,0.2,0.2,0.2h0.9c0.1,0,0.2-0.1,0.2-0.2
			v-6.1c0,0,0-0.1,0.1-0.1h1.9c0.1,0,0.2-0.1,0.2-0.2v-0.7C124.1,34.5,124,34.4,123.9,34.4z M132.3,34.4h-4.8
			c-0.1,0-0.2,0.1-0.2,0.2v7.1c0,0.1,0.1,0.2,0.2,0.2h4.8c0.1,0,0.2-0.1,0.2-0.2V41c0-0.1-0.1-0.2-0.2-0.2h-3.6c0,0-0.1,0-0.1-0.1
			v-2c0,0,0-0.1,0.1-0.1h2.4c0.1,0,0.2-0.1,0.2-0.2v-0.7c0-0.1-0.1-0.2-0.2-0.2h-2.4c0,0-0.1,0-0.1-0.1v-2c0,0,0-0.1,0.1-0.1h3.6
			c0.1,0,0.2-0.1,0.2-0.2v-0.7C132.5,34.5,132.4,34.4,132.3,34.4z M144.1,34.7c-0.4-0.2-0.9-0.3-1.4-0.3c-0.5,0-1,0.1-1.4,0.3
			c-0.4,0.2-0.7,0.5-0.9,0.9c-0.2,0.4-0.3,0.8-0.3,1.3v2.6c0,0.5,0.1,0.9,0.3,1.3c0.2,0.4,0.5,0.7,0.9,0.9c0.4,0.2,0.9,0.3,1.4,0.3
			c0.8,0,1.5-0.2,2-0.7c0.5-0.5,0.7-1.1,0.7-1.9v-1.3c0-0.1-0.1-0.2-0.2-0.2h-2.4c-0.1,0-0.2,0.1-0.2,0.2v0.7c0,0.1,0.1,0.2,0.2,0.2
			h1.3c0,0,0.1,0,0.1,0.1v0.6c0,0.4-0.1,0.7-0.4,0.9c-0.2,0.2-0.6,0.3-1,0.3c-0.4,0-0.8-0.1-1.1-0.4c-0.3-0.3-0.4-0.6-0.4-1v-2.7
			c0-0.4,0.1-0.8,0.4-1c0.3-0.3,0.6-0.4,1.1-0.4c0.4,0,0.8,0.1,1,0.4c0.3,0.2,0.4,0.6,0.4,0.9v0.1c0,0,0,0.1,0,0.1c0,0,0.1,0,0.1,0
			h0.9c0.1,0,0.2-0.1,0.2-0.2v0c0-0.4-0.1-0.8-0.3-1.2C144.8,35.1,144.5,34.9,144.1,34.7z M152.7,38.6
			C152.7,38.6,152.7,38.6,152.7,38.6C152.7,38.6,152.7,38.6,152.7,38.6c0.5-0.2,0.8-0.4,1.1-0.8c0.3-0.3,0.4-0.8,0.4-1.3
			c0-0.4-0.1-0.8-0.3-1.1c-0.2-0.3-0.4-0.6-0.8-0.8s-0.7-0.3-1.2-0.3H149c-0.1,0-0.2,0.1-0.2,0.2v7.1c0,0.1,0.1,0.2,0.2,0.2h0.9
			c0.1,0,0.2-0.1,0.2-0.2v-3c0,0,0-0.1,0.1-0.1h1.3c0,0,0.1,0,0.1,0l1.4,3c0,0.1,0.1,0.1,0.2,0.1h0.9c0.1,0,0.2,0,0.2-0.1l0-0.1
			L152.7,38.6z M151.8,37.7h-1.6c0,0-0.1,0-0.1-0.1v-2.1c0,0,0-0.1,0.1-0.1h1.6c0.3,0,0.6,0.1,0.8,0.3c0.2,0.2,0.3,0.5,0.3,0.8
			c0,0.3-0.1,0.6-0.3,0.8C152.4,37.6,152.1,37.7,151.8,37.7z M161.6,34.7c-0.4-0.2-0.9-0.3-1.4-0.3c-0.5,0-1,0.1-1.4,0.3
			c-0.4,0.2-0.7,0.5-1,0.9c-0.2,0.4-0.3,0.8-0.3,1.4v2.4c0,0.5,0.1,1,0.3,1.4c0.2,0.4,0.5,0.7,1,0.9c0.4,0.2,0.9,0.3,1.4,0.3
			c0.5,0,1-0.1,1.4-0.3c0.4-0.2,0.7-0.5,1-0.9c0.2-0.4,0.3-0.9,0.3-1.4v-2.4c0-0.5-0.1-1-0.3-1.4C162.3,35.2,162,34.9,161.6,34.7z
			 M161.7,39.4c0,0.5-0.1,0.8-0.4,1.1c-0.3,0.3-0.6,0.4-1.1,0.4c-0.4,0-0.8-0.1-1.1-0.4c-0.3-0.3-0.4-0.6-0.4-1.1v-2.5
			c0-0.5,0.1-0.8,0.4-1.1c0.3-0.3,0.6-0.4,1.1-0.4c0.5,0,0.8,0.1,1.1,0.4c0.3,0.3,0.4,0.6,0.4,1.1V39.4z M171.6,34.4h-0.9
			c-0.1,0-0.2,0.1-0.2,0.2v4.9c0,0.4-0.1,0.8-0.4,1c-0.3,0.3-0.6,0.4-1.1,0.4c-0.4,0-0.8-0.1-1.1-0.4c-0.3-0.3-0.4-0.6-0.4-1v-4.9
			c0-0.1-0.1-0.2-0.2-0.2h-0.9c-0.1,0-0.2,0.1-0.2,0.2v4.9c0,0.5,0.1,0.9,0.3,1.3c0.2,0.4,0.5,0.7,1,0.9c0.4,0.2,0.9,0.3,1.4,0.3
			c0.5,0,1-0.1,1.4-0.3c0.4-0.2,0.7-0.5,0.9-0.9c0.2-0.4,0.3-0.8,0.3-1.3v-4.9C171.8,34.5,171.7,34.4,171.6,34.4z M179.6,34.7
			c-0.3-0.2-0.7-0.3-1.2-0.3h-2.9c-0.1,0-0.2,0.1-0.2,0.2v7.1c0,0.1,0.1,0.2,0.2,0.2h0.9c0.1,0,0.2-0.1,0.2-0.2v-2.8
			c0,0,0-0.1,0.1-0.1h1.7c0.5,0,0.9-0.1,1.2-0.3s0.6-0.4,0.8-0.8c0.2-0.3,0.3-0.7,0.3-1.2c0-0.4-0.1-0.8-0.3-1.2
			C180.3,35.1,180,34.9,179.6,34.7z M179.2,37.5c-0.2,0.2-0.5,0.3-0.9,0.3h-1.6c0,0-0.1,0-0.1-0.1v-2.2c0,0,0-0.1,0.1-0.1h1.6
			c0.4,0,0.7,0.1,0.9,0.3c0.2,0.2,0.3,0.5,0.3,0.9C179.5,37,179.4,37.3,179.2,37.5z M67.6,22.2h-0.4c0,1.3-0.4,2.6-1.4,2.6
			c-0.8,0-1.1-0.8-1.1-2V20c0-3.5-1.5-4.9-6.8-4.9v-0.1c4.3,0,6.4-2.2,6.4-5.2c0-4.6-3.5-5.9-8.7-5.9H46v0.4h2v21h-2v0.4h8.1v-0.4
			h-2v-9.9h3.6c3.5,0,4.9,1.2,4.9,3.8v2.8c0,2.9,1.1,3.9,3.6,3.9C66.7,26,67.6,24.6,67.6,22.2z M54.8,15.1H52V4.6h2.8
			c3.1,0,5.6,1.1,5.6,5.2C60.4,14,57.6,15.1,54.8,15.1z M77.8,9c-4.7,0-8.8,2.7-8.8,8.5c0,5.5,4.6,8.5,9.3,8.5c3.7,0,6-2.1,6.9-3.6
			l-0.3-0.2c-0.8,0.9-2.3,2.1-4.8,2.1c-3.4,0-6.5-2.1-6.8-6.7c0,0,12.4,0,12.4,0C86,11.6,82.5,9,77.8,9z M81.7,16.8h-8.5
			c-0.1-4.3,2.1-7.4,4.6-7.4C81,9.4,81.9,12.6,81.7,16.8z M96.4,25.4h-2V15.3h10.4v10.1h-2v0.4h8.1v-0.4h-2v-21h2V4h-8.1v0.4h2v10.3
			H94.5V4.4h2V4h-8.1v0.4h2v21h-2v0.4h8.1V25.4z M122.5,26c4.5,0,9.4-2.6,9.4-8.5c0-5.9-4.8-8.5-9.4-8.5c-4.5,0-9.4,2.6-9.4,8.5
			C113.1,23.4,118,26,122.5,26z M122.5,9.4c3.4,0,5.3,3.5,5.3,8.1c0,4.6-1.9,8.1-5.3,8.1s-5.3-3.5-5.3-8.1
			C117.2,12.9,119.1,9.4,122.5,9.4z M163.7,14.9c0-3.2-0.9-5.9-5.2-5.9c-3,0-5.4,1.9-6.9,4.7c-0.2-2.6-1.4-4.7-5.1-4.7
			c-3,0-5.3,1.8-6.8,4.5V9.4H134v0.4h1.8v15.6H134v0.4h7.3v-0.4h-1.7V14.9c0-1.6,1.9-3.8,4.1-4c3.3-0.4,4.2,1.2,4.2,3.7v10.8h-1.7
			v0.4h7.3v-0.4h-1.7c0,0,0-9.3,0-10.5c0-1.6,1.9-3.8,4.1-4c3.3-0.4,4.2,1.2,4.2,3.7v10.8h-1.8v0.4h7.3v-0.4h-1.8V14.9z M176.6,9
			c-4.7,0-8.8,2.7-8.8,8.5c0,5.5,4.6,8.5,9.3,8.5c3.7,0,6-2.1,6.9-3.6l-0.3-0.2c-0.8,0.9-2.3,2.1-4.8,2.1c-3.4,0-6.5-2.1-6.8-6.7
			c0,0,12.4,0,12.4,0C184.8,11.6,181.3,9,176.6,9z M180.5,16.8H172c-0.1-4.3,2.1-7.4,4.6-7.4C179.8,9.4,180.7,12.6,180.5,16.8z
			 M195.7,16.6c-2.5-1.4-5.3-2.6-5.1-4.8c0.2-1.9,1.6-2.5,2.8-2.5c2,0,3.4,0.6,5.7,5.3h0.3v-4.4c-2-0.6-4.3-1.2-5.8-1.2
			c-1.7,0-5.6,0.2-6,4.1c-0.3,2.6,1.2,4.2,3.8,5.6c2.5,1.4,5.6,2.5,5.2,5c-0.3,1.9-1.9,2.2-3.4,2.1c-1.6-0.1-3.4-0.6-6-5.8h-0.3v4.9
			c2.5,0.7,5,1.2,6.7,1.2c2.3,0,5.7-0.4,6.3-3.6C200.4,19.6,199,18.3,195.7,16.6z M31.6,19.1L28,15.4v27l3.7-1.7V19.1z M8.9,15.4
			l-3.7,3.7v21.1l3.7,1.4V15.4z M0,39.2c3.4,1.5,18.5,9.7,20.5,10.8c0,0,13.8-8.8,18.4-11.4c0,0-16.2,7.8-18.6,9.4L0,39.2z
			 M26.2,5.2l-5-4.9v45.4l5-2.4V5.2z M19.3,0l-8.2,8.1v34.4l8.2,3.1V0z"/>
	</g>
</g>
</svg>
